# File created by Blade
# Date/Time:  Thu Jan 22 16:16:16 2015
#---------------------------------------------------------
:version 1.10
:name HOM
:units
  mass 1.0
  length 1.000000
  angle deg
:documentation
     Acclaim Skeleton File
:root
   axis xyz
   order TX TY TZ RX RY RZ
   position 0.000000 0.000000 0.000000
   orientation 0 0 0
:bonedata
   begin
      id 1
      name RightUpLeg_dum
      direction -1.000000 0.000000 0.000000
      length 3.766986
      axis 0.0 0.0 0.0 xyz
   end
   begin
      id 2
      name LeftUpLeg_dum
      direction 1.000000 0.000000 0.000000
      length 3.766986
      axis 0.0 0.0 0.0 xyz
   end
   begin
      id 3
      name Spine_dum
      direction 0.000000 1.000000 0.000000
      length 7.779697
      axis 0.0 0.0 0.0 xyz
   end
   begin
      id 4
      name RightUpLeg
      direction 0.000000 -1.000000 0.000000
      length 18.017682
      axis 0.0 0.0 0.0 xyz
      dof rx ry rz
   end
   begin
      id 5
      name RightLeg
      direction 0.000000 -1.000000 0.000000
      length 16.881075
      axis 0.0 0.0 0.0 xyz
      dof rx ry rz
   end
   begin
      id 6
      name RightFoot
      direction 0.000000 -0.258819 0.965926
      length 5.770812
      axis 15.0 0.0 0.0 xyz
      dof rx ry rz
   end
   begin
      id 7
      name RightToeBase
      direction 0.000000 0.000000 1.000000
      length 2.952750
      axis 0.0 0.0 0.0 xyz
      dof rx ry rz
   end
   begin
      id 8
      name LeftUpLeg
      direction 0.000000 -1.000000 0.000000
      length 18.017682
      axis 0.0 0.0 0.0 xyz
      dof rx ry rz
   end
   begin
      id 9
      name LeftLeg
      direction 0.000000 -1.000000 0.000000
      length 16.881075
      axis 0.0 0.0 0.0 xyz
      dof rx ry rz
   end
   begin
      id 10
      name LeftFoot
      direction 0.000000 -0.258819 0.965926
      length 5.770812
      axis 15.0 0.0 0.0 xyz
      dof rx ry rz
   end
   begin
      id 11
      name LeftToeBase
      direction 0.000000 0.000000 1.000000
      length 2.952750
      axis 0.0 0.0 0.0 xyz
      dof rx ry rz
   end
   begin
      id 12
      name Spine
      direction 0.000000 1.000000 0.000000
      length 0.000000
      axis 0.0 0.0 0.0 xyz
      dof rx ry rz
   end
   begin
      id 13
      name Spine_dum1
      direction 0.000000 1.000000 0.000000
      length 10.941760
      axis 0.0 0.0 0.0 xyz
   end
   begin
      id 14
      name Spine_dum2
      direction 0.000000 1.000000 0.000000
      length 10.941760
      axis 0.0 0.0 0.0 xyz
   end
   begin
      id 15
      name Spine_dum3
      direction 0.000000 1.000000 0.000000
      length 16.646042
      axis 0.0 0.0 0.0 xyz
   end
   begin
      id 16
      name RightShoulder
      direction -1.000000 0.000000 0.000000
      length 7.708937
      axis 0.0 0.0 90.0 xyz
      dof rx ry rz
   end
   begin
      id 17
      name RightArm
      direction -1.000000 0.000000 0.000000
      length 11.521345
      axis 0.0 0.0 90.0 xyz
      dof rx ry rz
   end
   begin
      id 18
      name RightForeArm
      direction -1.000000 0.000000 0.000000
      length 10.175898
      axis 0.0 0.0 90.0 xyz
      dof ry rz rx
   end
   begin
      id 19
      name RightHand
      direction -1.000000 0.000000 0.000000
      length 0.000000
      axis 0.0 0.0 90.0 xyz
      dof rx ry rz
   end
   begin
      id 20
      name RightHand_dum1
      direction -1.000000 0.000000 0.000000
      length 3.937000
      axis 0.0 0.0 90.0 xyz
   end
   begin
      id 21
      name RightHand_dum2
      direction 0.000000 0.000000 0.000000
      length 0.000000
      axis 0.0 0.0 90.0 xyz
   end
   begin
      id 22
      name RightHandThumb1
      direction 0.000000 0.000000 1.000000
      length 3.937000
      axis 0.0 0.0 90.0 xyz
      dof rx rz ry
   end
   begin
      id 23
      name LeftShoulder
      direction 1.000000 0.000000 0.000000
      length 7.708937
      axis 0.0 0.0 -90.0 xyz
      dof rx ry rz
   end
   begin
      id 24
      name LeftArm
      direction 1.000000 0.000000 0.000000
      length 11.521345
      axis 0.0 0.0 -90.0 xyz
      dof rx ry rz
   end
   begin
      id 25
      name LeftForeArm
      direction 1.000000 0.000000 0.000000
      length 10.175898
      axis 0.0 0.0 -90.0 xyz
      dof ry rz rx
   end
   begin
      id 26
      name LeftHand
      direction 1.000000 0.000000 0.000000
      length 0.000000
      axis 0.0 0.0 -90.0 xyz
      dof rx ry rz
   end
   begin
      id 27
      name LeftHand_dum1
      direction 1.000000 0.000000 0.000000
      length 3.937000
      axis 0.0 0.0 -90.0 xyz
   end
   begin
      id 28
      name LeftHand_dum2
      direction 0.000000 0.000000 0.000000
      length 0.000000
      axis 0.0 0.0 -90.0 xyz
   end
   begin
      id 29
      name LeftHandThumb1
      direction 0.000000 0.000000 1.000000
      length 3.937000
      axis 0.0 0.0 -90.0 xyz
      dof rx rz ry
   end
   begin
      id 30
      name Head
      direction 0.000000 1.000000 0.000000
      length 4.527550
      axis 0.0 0.0 0.0 xyz
      dof rx ry rz
   end
:hierarchy
   begin
      root RightUpLeg_dum LeftUpLeg_dum Spine_dum
      RightUpLeg_dum RightUpLeg
      LeftUpLeg_dum LeftUpLeg
      Spine_dum Spine
      RightUpLeg RightLeg
      RightLeg RightFoot
      RightFoot RightToeBase
      LeftUpLeg LeftLeg
      LeftLeg LeftFoot
      LeftFoot LeftToeBase
      Spine Spine_dum1 Spine_dum2 Spine_dum3
      Spine_dum1 RightShoulder
      Spine_dum2 LeftShoulder
      Spine_dum3 Head
      RightShoulder RightArm
      RightArm RightForeArm
      RightForeArm RightHand
      RightHand RightHand_dum1 RightHand_dum2
      RightHand_dum2 RightHandThumb1
      LeftShoulder LeftArm
      LeftArm LeftForeArm
      LeftForeArm LeftHand
      LeftHand LeftHand_dum1 LeftHand_dum2
      LeftHand_dum2 LeftHandThumb1
   end

# File created by Blade
# Date/Time:  Thu Jan 22 16:16:06 2015
# Frame Rate: 120.000 fps
#------------------------------------------------------
:FULLY-SPECIFIED
:DEGREES
129
root 2.970926 36.462068 -0.953887 -4.572617 1.858201 -4.465665
RightUpLeg 13.127463 -10.216931 -4.621737
RightLeg -2.977165 -0.000000 0.000000
RightFoot -14.271514 -17.152463 25.064748
RightToeBase 14.122898 -0.000000 -0.000000
LeftUpLeg 0.852191 0.867834 20.384500
LeftLeg 6.322641 -0.000000 -0.000000
LeftFoot -6.900845 13.820077 -25.889287
LeftToeBase 7.385738 -0.000000 -0.000000
Spine 15.345242 -4.226999 -1.834110
RightShoulder -4.605674 -14.783332 -18.862703
RightArm 9.056287 23.670112 46.940125
RightForeArm 2.659236 -0.000000 21.844650
RightHand 4.674349 0.000000 -2.425024
RightHandThumb1 -24.326973 -0.000000 -32.862282
LeftShoulder -22.593815 30.108265 15.991501
LeftArm 51.034289 -49.069282 -59.821362
LeftForeArm 41.771479 -0.000000 7.312170
LeftHand -20.042648 -0.000000 -2.552461
LeftHandThumb1 -26.253704 0.000000 33.147579
Head -6.087394 10.326657 6.049489
130
root 3.086966 36.469964 -0.917963 -4.356972 1.721316 -4.332581
RightUpLeg 12.712171 -10.249060 -4.930905
RightLeg -2.497515 -0.000000 0.000000
RightFoot -14.276773 -16.865574 25.171189
RightToeBase 13.963386 -0.000000 -0.000000
LeftUpLeg 0.714155 0.658892 20.095256
LeftLeg 6.413973 -0.000000 -0.000000
LeftFoot -7.125609 14.074938 -26.549230
LeftToeBase 8.554228 -0.000000 -0.000000
Spine 15.205059 -3.963199 -2.568129
RightShoulder -4.710450 -15.159663 -18.371297
RightArm 9.325930 23.098995 47.527594
RightForeArm 2.259526 -0.000000 21.846944
RightHand 4.629706 -0.000000 -2.394727
RightHandThumb1 -24.326973 -0.000000 -32.862282
LeftShoulder -22.673163 30.138611 16.133335
LeftArm 50.861191 -49.137487 -59.517963
LeftForeArm 41.951328 -0.000000 7.292481
LeftHand -20.099899 -0.000000 -2.792688
LeftHandThumb1 -26.253704 0.000000 33.147579
Head -6.184325 10.204432 6.677002
131
root 3.202147 36.477482 -0.883923 -4.069025 1.601591 -4.256814
RightUpLeg 12.229314 -10.268719 -5.167539
RightLeg -2.039753 -0.000000 0.000000
RightFoot -14.238001 -16.582350 25.314599
RightToeBase 13.799569 -0.000000 -0.000000
LeftUpLeg 0.523327 0.492987 19.838593
LeftLeg 6.489974 -0.000000 -0.000000
LeftFoot -7.364447 14.373504 -26.718040
LeftToeBase 9.406084 -0.000000 -0.000000
Spine 14.952802 -3.765297 -3.198095
RightShoulder -4.845842 -15.526784 -17.889246
RightArm 9.671379 22.512739 48.049272
RightForeArm 2.043960 -0.000000 21.765126
RightHand 4.532793 0.000000 -2.310100
RightHandThumb1 -24.326973 -0.000000 -32.862282
LeftShoulder -22.780343 30.229879 16.192463
LeftArm 50.723262 -49.159208 -59.212810
LeftForeArm 41.785631 0.000000 7.160276
LeftHand -19.821639 -0.000000 -2.377135
LeftHandThumb1 -26.253704 0.000000 33.147579
Head -6.208408 10.106397 7.207691
132
root 3.311279 36.486005 -0.855299 -3.730198 1.466665 -4.219809
RightUpLeg 11.664202 -10.287036 -5.354976
RightLeg -1.541694 -0.000000 0.000000
RightFoot -14.179935 -16.239108 25.468853
RightToeBase 13.579977 -0.000000 -0.000000
LeftUpLeg 0.272614 0.457300 19.619171
LeftLeg 6.583764 -0.000000 -0.000000
LeftFoot -7.660332 14.678257 -26.779303
LeftToeBase 9.571908 -0.000000 -0.000000
Spine 14.635617 -3.524003 -3.761159
RightShoulder -5.017173 -15.845750 -17.411172
RightArm 9.944397 22.035748 48.557798
RightForeArm 1.741423 -0.000000 21.678262
RightHand 4.480100 -0.000000 -2.109199
RightHandThumb1 -24.326973 -0.000000 -32.862282
LeftShoulder -22.791705 30.251205 16.323767
LeftArm 50.359915 -49.144875 -58.788632
LeftForeArm 41.702690 -0.000000 7.211488
LeftHand -19.874140 -0.000000 -2.714149
LeftHandThumb1 -26.253704 0.000000 33.147579
Head -6.215130 9.970060 7.696645
133
root 3.412780 36.497004 -0.830462 -3.344015 1.287422 -4.216332
RightUpLeg 11.005198 -10.160045 -5.466128
RightLeg -0.987973 -0.000000 0.000000
RightFoot -14.122688 -15.966645 25.604212
RightToeBase 13.309077 -0.000000 -0.000000
LeftUpLeg -0.003449 0.518317 19.451789
LeftLeg 6.653429 -0.000000 -0.000000
LeftFoot -7.943942 14.864746 -26.829505
LeftToeBase 9.821850 -0.000000 -0.000000
Spine 14.238610 -3.277489 -4.300974
RightShoulder -5.152311 -16.144506 -16.921997
RightArm 10.202384 21.663989 49.055123
RightForeArm 1.447307 -0.000000 21.565115
RightHand 4.425316 -0.000000 -1.839189
RightHandThumb1 -24.326973 -0.000000 -32.862282
LeftShoulder -22.848409 30.322252 16.453197
LeftArm 50.236189 -49.215278 -58.683572
LeftForeArm 41.819508 -0.000000 7.263464
LeftHand -19.966822 0.000000 -2.723852
LeftHandThumb1 -26.253704 0.000000 33.147579
Head -6.140352 9.859024 8.229322
134
root 3.511233 36.509870 -0.809859 -2.930153 1.085280 -4.258859
RightUpLeg 10.284624 -10.042176 -5.541449
RightLeg -0.384875 -0.000000 0.000000
RightFoot -13.977946 -15.567042 25.711953
RightToeBase 12.911483 -0.000000 -0.000000
LeftUpLeg -0.342700 0.736993 19.331769
LeftLeg 6.808735 -0.000000 -0.000000
LeftFoot -8.160760 14.949176 -26.663909
LeftToeBase 9.826450 -0.000000 -0.000000
Spine 13.811665 -3.048154 -4.736336
RightShoulder -5.241408 -16.339916 -16.512317
RightArm 10.324894 21.375887 49.532684
RightForeArm 1.218230 0.000000 21.491762
RightHand 4.344928 -0.000000 -1.556066
RightHandThumb1 -24.326973 -0.000000 -32.862282
LeftShoulder -22.883878 30.384006 16.512192
LeftArm 50.011239 -49.288576 -58.473412
LeftForeArm 41.679350 -0.000000 7.295361
LeftHand -19.945266 0.000000 -2.627562
LeftHandThumb1 -26.253704 0.000000 33.147579
Head -6.059817 9.777196 8.603434
